<svg width="128" height="128" viewBox="0 0 128 128" fill="none" xmlns="http://www.w3.org/2000/svg">
<path d="M72.2195 80.1206C70.2484 82.0708 67.1735 83.0458 62.9947 83.0458C58.7372 83.0458 55.6229 81.8368 53.6518 79.4186C51.6807 77.0004 50.6951 73.7632 50.6951 69.7069V60.3462C50.6951 56.2899 51.6807 53.0527 53.6518 50.6345C55.6229 48.2163 58.7372 47.0072 62.9947 47.0072C67.2523 47.0072 70.3666 48.0213 72.3377 50.0495C74.3088 52.0776 75.2943 54.5738 75.2943 57.538V71.813C75.2943 75.4013 74.2694 78.1705 72.2195 80.1206Z" fill="white"/>
<path fill-rule="evenodd" clip-rule="evenodd" d="M64.5 126C98.4655 126 126 98.4655 126 64.5C126 30.5345 98.4655 3 64.5 3C30.5345 3 3 30.5345 3 64.5C3 98.4655 30.5345 126 64.5 126ZM64.1774 113H91.615V105.862H64.2957C58.6978 105.862 53.6124 104.926 49.0394 103.054C44.4665 101.26 40.5243 98.686 37.2129 95.3317C33.9803 91.9775 31.4573 87.9992 29.6439 83.3969C27.8305 78.7945 26.9238 73.7242 26.9238 68.1858V61.2823C26.9238 55.8999 27.8305 50.9075 29.6439 46.3052C31.5361 41.6249 34.1774 37.5686 37.5677 34.1363C40.958 30.6261 44.979 27.8959 49.6307 25.9457C54.2825 23.9956 59.4468 23.0205 65.1235 23.0205C70.1695 23.0205 74.9001 23.8396 79.3154 25.4777C83.7306 27.1158 87.5545 29.417 90.7871 32.3812C94.0197 35.3454 96.5427 38.9337 98.3561 43.146C100.248 47.3583 101.194 52.0386 101.194 57.187V62.5694C101.194 69.1218 100.248 74.2702 98.3561 78.0145C96.4639 81.7588 93.6649 83.6309 89.9593 83.6309C87.7516 83.6309 86.0959 83.1238 84.9921 82.1098C83.9671 81.0177 83.4547 78.9505 83.4547 75.9083V40.3378H75.2943V48.2943H74.8213C73.7175 45.7981 72.1012 43.692 69.9724 41.9759C67.8436 40.1817 64.9658 39.2847 61.339 39.2847C58.5795 39.2847 55.9382 39.8307 53.4152 40.9228C50.9711 41.9369 48.8029 43.497 46.9106 45.6031C45.0184 47.7093 43.5204 50.4005 42.4166 53.6767C41.3127 56.8749 40.7608 60.6582 40.7608 65.0265C40.7608 69.3949 41.3127 73.2171 42.4166 76.4934C43.5204 79.6916 45.0184 82.3438 46.9106 84.4499C48.8029 86.5561 50.9711 88.1552 53.4152 89.2473C55.9382 90.2614 58.5795 90.7684 61.339 90.7684C64.9658 90.7684 67.9225 89.8713 70.2089 88.0772C72.4954 86.2831 74.4271 83.8259 76.0039 80.7057H76.477C76.8712 83.6699 78.0145 86.0881 79.9067 87.9602C81.799 89.8323 84.6373 90.7684 88.4218 90.7684C92.1275 90.7684 95.2812 89.9883 97.8831 88.4282C100.485 86.7901 102.614 84.645 104.269 81.9928C105.925 79.2626 107.108 76.1033 107.817 72.5151C108.606 68.9268 109 65.1045 109 61.0483C109 53.0137 107.739 46.1492 105.216 40.4548C102.771 34.6823 99.4993 30.002 95.3995 26.4137C91.3784 22.8255 86.7267 20.2123 81.4442 18.5742C76.1616 16.8581 70.7608 16 65.2418 16C58.2247 16 51.8778 17.2091 46.2011 19.6273C40.5243 22.0454 35.6754 25.4387 31.6544 29.807C27.6334 34.0973 24.5191 39.2457 22.3114 45.2521C20.1038 51.2585 19 57.889 19 65.1435C19 72.3981 20.0644 78.9895 22.1932 84.918C24.4008 90.7684 27.4757 95.7608 31.4179 99.8951C35.3601 104.107 40.0907 107.345 45.6097 109.607C51.2076 111.869 57.3968 113 64.1774 113Z" fill="white"/>
</svg>
